<svg width="42" height="42" viewBox="0 0 42 42" fill="none" xmlns="http://www.w3.org/2000/svg">
<g clip-path="url(#clip0_5_81)">
<path d="M7 30.5L15.5 14.5L39.5 20L40.5 33.5L38 39.5H11L7 30.5Z" fill="white"/>
<path fill-rule="evenodd" clip-rule="evenodd" d="M0 0H42V42H0V0ZM32.1067 35.2093C30.16 35.2093 29.0593 34.194 28.2133 32.8127L25.0059 34.6761C26.1646 36.9653 28.5327 38.7119 32.1981 38.7119C35.9466 38.7119 38.738 36.7654 38.738 33.212C38.738 29.9161 36.8447 28.4499 33.4913 27.0119L32.5047 26.5893C30.8114 25.8561 30.078 25.3767 30.078 24.1927C30.078 23.2347 30.8107 22.5013 31.9667 22.5013C33.1 22.5013 33.83 22.9792 34.5067 24.1927L37.58 22.2194C36.2799 19.9327 34.4761 19.0592 31.9667 19.0592C28.4421 19.0592 26.1867 21.3127 26.1867 24.2727C26.1867 27.486 28.0786 29.0061 30.9267 30.2193L31.9134 30.6427C33.7134 31.43 34.7867 31.9093 34.7867 33.2626C34.7867 34.392 33.7419 35.2093 32.1067 35.2093ZM16.8113 35.1846C15.4553 35.1846 14.8913 34.2547 14.2713 33.1546L11.0587 35.0997C11.9893 37.0694 13.8193 38.7048 16.9793 38.7048C20.4766 38.7048 22.8727 36.8447 22.8727 32.7581V19.2847H18.9261V32.7047C18.9261 34.6773 18.108 35.1846 16.8113 35.1846Z" fill="#E01E37"/>
</g>
<defs>
<clipPath id="clip0_5_81">
<rect width="42" height="42" rx="5" fill="white"/>
</clipPath>
</defs>
</svg>
