<svg width="42" height="42" viewBox="0 0 42 42" fill="none" xmlns="http://www.w3.org/2000/svg">
<rect width="42" height="42" rx="5" fill="#E01E37"/>
<path d="M10.6064 18.2734C11.6366 18.2734 12.3231 18.4636 12.6664 18.8439C13.0093 19.2242 13.091 19.877 12.9116 20.8021C12.7241 21.7654 12.3631 22.453 11.828 22.865C11.293 23.277 10.4787 23.4827 9.38549 23.4827H7.7362L8.74863 18.2734H10.6064ZM4 28.7562H6.71147L7.35458 25.447H9.67706C10.7019 25.447 11.5449 25.3396 12.2067 25.1241C12.8685 24.9089 13.47 24.548 14.0114 24.0413C14.4657 23.6236 14.8334 23.1629 15.1149 22.6591C15.3961 22.1558 15.596 21.6 15.7141 20.9922C16.001 19.5168 15.7845 18.3675 15.0652 17.5442C14.346 16.7208 13.2018 16.3092 11.6332 16.3092H6.41918L4 28.7562Z" fill="white"/>
<path d="M17.7054 13H20.3955L19.7523 16.3092H22.1488C23.6566 16.3092 24.6968 16.5724 25.2693 17.0982C25.8417 17.6243 26.0132 18.4766 25.7843 19.6549L24.6588 25.447H21.926L22.9962 19.9397C23.118 19.3132 23.0733 18.8859 22.8618 18.6581C22.6503 18.4302 22.2003 18.3161 21.5121 18.3161H19.3621L17.9763 25.447H15.2862L17.7054 13Z" fill="white"/>
<path d="M31.7697 18.2734C32.7998 18.2734 33.4864 18.4636 33.8296 18.8439C34.1727 19.2242 34.2544 19.877 34.0748 20.8021C33.8874 21.7654 33.5265 22.453 32.9913 22.865C32.4562 23.277 31.6419 23.4827 30.5488 23.4827H28.8995L29.912 18.2734H31.7697ZM25.1633 28.7562H27.8748L28.5178 25.447H30.8403C31.8651 25.447 32.7081 25.3396 33.37 25.1241C34.0318 24.9089 34.6332 24.548 35.1747 24.0413C35.6291 23.6236 35.9967 23.1629 36.2782 22.6591C36.5594 22.1558 36.7593 21.6 36.8773 20.9922C37.1642 19.5168 36.9478 18.3675 36.2285 17.5442C35.5093 16.7208 34.365 16.3092 32.7965 16.3092H27.5826L25.1633 28.7562Z" fill="white"/>
</svg>
